<mxfile host="65bd71144e">
    <diagram id="_FwucFHV42NeqySNfbv-" name="Страница 1">
        <mxGraphModel dx="3337" dy="1106" grid="1" gridSize="10" guides="1" tooltips="1" connect="1" arrows="1" fold="1" page="1" pageScale="1" pageWidth="1169" pageHeight="1654" math="0" shadow="0">
            <root>
                <mxCell id="0"/>
                <mxCell id="1" parent="0"/>
                <mxCell id="2" value="" style="shape=image;imageAspect=0;aspect=fixed;verticalLabelPosition=bottom;verticalAlign=top;image=data:image/png,iVBORw0KGgoAAAANSUhEUgAAAacAAANSCAYAAADBLwEbAAAAAXNSR0IArs4c6QAAAARnQU1BAACxjwv8YQUAAAAJcEhZcwAADsMAAA7DAcdvqGQAAC78SURBVHhe7d1/rGTnXdhhBBIqraDQQsDUiRPsAHGcEG9E0zhExEAI4IB/4YjWiYlxQhMCiWUTahxi7ACbQNYIElBosgjixVRuXLu9LGXBYXdBpCKkWhrYFURIgbYG6qVCVaS0Syk6nfeceWfec+aduTN3Z3a/997nj0d7z495Z+6NdD55z4zn/YxLvvgLGwCIRJwACEecAAhHnAAIR5wACGe9cbru/uaRRw81t35Z5dg2Xv4dr22+/c339rzo61/RPOvLnlk9f2VvO9acPfdkc/xtlWPJkVPNuTOH68cAuKDWPHO6rLn1waPNya3VAzUM0zJe+m3fXh1rR8QJIIwN3NbrAvXE4wdXClQtPsuojbUj4gQQxobecxoF6l2PrRSoWnhKv/gv7m7O3vSq5ofe8Obe/tpYVe1tvVPNQ5N9h5vT5z7VnGuN9g/idN+JJ8fHRnrRKh/3qebsiXuKYwCswwY/EDEN1C3V431lcEr3fte9zUdeeW/zP192b3P01a9r/utrr2/e/qbvmxyvjVXVi9M9zfGnPtWcPpKPj4OTI5RC9dSx5r7xYx86U0RodGzyuO3exwJgRzYfp61DO47TPXd0UfrvX39v82O3vb3d94bv/f7mL99wXfPD3/emdrs2VlUZp0F8WpOZ0zBc5bFiXyudK04A67bR23onj77nvG/r/f4339v83it+vPnADb/cvOZfPtDue+P33d384Z3f1Nz3ltdXx6oaxmkYm0GcJrf0sknMhsfFCWDdNvOBiBXDlAyjNHTXq3+6+ZGX/OJk+41vvrP5/bceaL77mn9YHW/GNjOn9j2mSZzmBWc4qzJzAtiENcdpZ2FKyhAt46fvvaF58r7Pb15/zedWx2uVQSp/Hr/HNO89pzZUw9t+k/OKGLVjihPAuq03TtcfbB7bWj1MySvv6H8Kb573HHxV8+T7n9WceveV7X+4WxtrYm6c8na+NTfaP7jVlz4EMb11V4QsnZf3P3WqOW3mBLB2G/xAxHrd9A1f2vzWzzyr+Zuty5obX/JF1XMA2Bt2RZzefc8Vzd99/Ormt9//7OarnytMAHvdrojTP/2qL2ne8p1r+o49AMLbNbf1ANg/xAmAcMQJgHDECYBwxAmAcMQJgHDECYBwxAmAcMQJgHDWG6fr7m8eefTQjr749UXv+HDzdQ9/uuf5t/1o84znvKB6PosMvj0dYJdZ88zpsubWB482J7dWD9QwTMs4cOcHq2Ot13ANpx0YfiP6xokTsLtt4LZeF6gnHj+4UqBq8Sld/f6/bP7+23+n+cx/9Zvtv1f+zJ+1+2tjrZc4AVxoG3rPqVt0cJVADWM09GU/+YlJnJJ/9I6PtftrY1XlQJTrMeX1myrx6FbG/Xi3COFk/abpAoTlek9nT9zTf1w+P41fPt/g3Jre4/Pz9daeGoayi2c+1o0/jtOR4nGDxRPnvX6ACDb4gYhpoG6pHu8bxii75hf+ug1TlgOV4vQLJ352+W8rzxf4yYKC3UW9uzAPZ0dpO888ZmdO0yXdB8cry7+3lpw5DVfgfehE9/N9J05NZ0Ft7PJY5e+Qtg83xydxKoPUbeffYe7rb7cBLr7Nx2nr0HnFqZwtlb70XX/Q/PkffGvzd3/81dXxZtQCUcQkXbAnF/l07uTCPrx4z94ymzx2XoSWilN6nmVuxaXnH4/Ve53Dc/pjpZlS9/steP3jbYCLbaO39U4eXX7J9lqYkhyjNGu67qGPN6975DdaadaUwnRecSov7sXP/Yt1LU7TW2ITeSYyuY1XPNdScSqiUz1WPt/4vPRckxnQ8Px5Adrm9QMEsJkPRKwYpqQWpiTHqYxR6c9OXl0db0YtEIOL+0Nn0gV9OIOpxWm70IwUs7Ll49QPSn1/8fzlc/TMjtWP0xKvH+AiWnOcdhampBamJH1KL93CO/Wx17cxSrfyUqiym15xaXW8VhmF9uf++zPl+zCt0cX+7JmknEUM4zT+MMF2M42Z594+CO24RWza95yGj01Bmmx3v0P5O03fc5oXpyVfP8BFtN44XX+weWxr9TAlL33vJ6pxynKcsl/7yNvb/3C3NtZEJRDHRxfpfCtrelHPKsFK2iCU4eiCNbkllkOQzyv3jcfIn46bfc6+fF5rHJAUlum+U4OZT/ea8/HutS+O09zXPxkT4OLa4Aci1uvd91zR3sLLt/KW/pRettTsJV3UtzsHgE3bNXE6b0vEqT+72JT+TCebma0B7GPiNDk2ikT1wwUAXGj7J04A7BriBEA44gRAOOIEQDjiBEA44gRAOOIEQDjiBEA44gRAOOuN03X3N488emhHX/x603u+vfnuJ76n52Vv/Nrm8uc+o3o+AHvXmmdOlzW3Pni0Obm1eqCGYVrGN9/3LdWxANjdNnBbrwvUE48fXClQtfgsozYWALvbht5z6hYdXCVQtfAsozbWrNkFA9sve5180Wv5TeHF2kb5y2KLdZom31qe9g2+KDatxeTbxQHO3wY/EDEN1C3V43218CyjNlZNu2BfsfrrdHmMQbjKby/P31aeH9du53gNF/SzFhTAumw+TluH1hqnI2ce7m3XxqrqzZRSkMZhmZkBFcfKUE2OTUPWmymlcSx9DrAWG72td/Lo8ku2l8GZ59//yVbzu3/x0V6gamPVDYKUQ1Lcsiu10ZmJ07wgFWMX5wKwM5v5QMSKYUrKCJXu+08PNO/7L/+6ueu3fqANU5b2peO1sebJt/KWnvFsF6d8K683KwPgfK05TjsLUzKMUpKD9OE/+81JpHKc8r7aWBPDuLQROdWcHpkGp/swxDQ4hW3jNN4+c+oCLO8OsH+sN07XH2we21o9TMmrf/m1M3HKt/HKGOXt5Nf/5InqWBMzceneM5qZKbXnFbf18ixoiTh1twXd0gNYpw1+IOL8HN463AvRPAd/7seqjwdg9wobJwD2L3ECIBxxAiAccQIgHHECIBxxAiAccQIgHHECIBxxAiAccQIgHHECIJz1xum6+5tHHj20oy9+fdE7Ptx83cOf7nn+bT/aPOM5L6iev3tYIRdgVWueOV3W3Prg0ebk1uqBGoZpGQfu/GB1rFjECWBVG7it1wXqiccPrhSoWnwWecsT/6f50B/93+ZV37XagoMXnjgBrGpD7zl1iw6uEqhagOb5yd891zzxyb+dqI3X163j1FuHqV14sFu3Ka2QO1nLqVzrqbeE+zQwvfMrazmlNZ/y8dNHBnHqrR0lWgA1G/xAxDRQt1SP99UilKQQ3ffb5ybbP//7f9MGKf+7XJzGQSnCk5dsbwNUW2K9DVMZpGPdz4P9wwUJh8/ThSofT6EqYjbvuQH2uc3HaevQecXpxkc/3d6+S3KQcqxWiVM5U+pmUuNIVFa7TWZWvG1VZmAj03MH8WlNZ07DcLnlB1C30dt6J48uv2T7MEqlHKgUojSTyvtXilMZpDRjqd6+y6Eozp08fv7+ySysGptBnCa39LLa8wDsb5v5QMSKYUrKGJVSmNKMKcUpzZhSjHY0cxrJEanPikYmt9nqM6QdzZyKmdk0YsVxAGasOU47C1MyjFKWQpRnSylUOVB5JrUwTsNbdu2tvVPN6ZH+7KY43pvlTM/L7zkN9w+fo32Pad57Tu25ZkoA21lvnK4/2Dy2tXqYkpe+9xMzYZonB2rlOI1nPvVberO32Hq34YoPLvT298ZPxs8xPj7zab3e84303oMCINngByI263ve9s7mlz/yyV3w3zkBsKpdGycA9i5xAiAccQIgHHECIBxxAiAccQIgHHECIBxxAiAccQIgHHECIBxxAiCc9cbpuvubRx49tKMvfv179/6H5rM+8Oc9n/fPf6h52lc8v3r+jg3XctqB9E3jlr4A2Jw1z5wua2598Ghzcmv1QA3DtIx/8D3vq461kDgBhLeB23pdoJ54/OBKgarFZ+hX/vz/tcp9tbEWEieA8Db0nlO36OAqgSqDM8/O4pTWU8rrJ51qHhrGqV3zabq+0jA6tTWdenEar880WR23N950Had2nDPHxms9DdeAAqC0wQ9ETAN1S/V4XxmcVdTGmhouqz4O1SRO3fb0eP/8NijFIoMPnRjEaWZl28Ey7Slc48d3kbMKLsAyNh+nrUMrx6mcIc37+daT/6v9tzbWRBGH3r5xnLrZzOAW3+R4ClU9Jl2cjg3CVhtvugpu9bkAqNrobb2TR5dfsj2FJpsXpPLnn/+Tv2le/mt/3Vx19dXV8VpFiGr7UjBm3jtKs6E2aNOw9I6PpDi1t+0GY3ezo/GxiS5w4gSwvM18IGLFMCU5TMtIUcqhOrT129XxWpWZUxmJajAm8Rrcoit0M6fD7S3AMm7V2BXHxAlgOWuO087ClOTwpBlRDs8i6bxLHv4f1bGmhu8pdduTSIw/vDDvPad2hrToPafxeJMgzbwHNSVOAMtbb5yuP9g8trV6mJLPfvfH2ji98w//dxufr/p3f9XGZxilLB1P/+Fubaye4afnhrf6esf77yElk1t4yfhx0zgVj89jpvHz+cV+cQJY3gY/ELEzN7/uTW180r8v+5Zvm4lSsvBWHgC7Xrg4pQ84fPd976xGKfnBn3u4+jgA9o5wcUpSoNLMKYXoFz/2p+1MKQVr4SfzANgzQsYJgP1NnAAIR5wACEecAAhHnAAIR5wACEecAAhHnAAIR5wACGe9cbru/uaRRw/t6Itf73rgnc1P/dJjPbfcdnvzlc/5iur5m/DQHXc25+44UD22TvfdfHtz7u6X9RdBBGBizTOny5pbHzzanNxaPVDDMC3jjrd8f3WscK69SYyAPevLn35Jc8PVz21ef80LmztefKC5+cBVzfOedWn13GVt4LZeF6gnHj+4UqBq8VlGbaxwxAnYo54/itDrXvLC5q5rX9yT9p1PoDb0nlO36OAqgaqFZxm1saYONKfvv705fvMoDvff2Tp97Wh/ikW5PT4/3dY7e/Plve3peWmsm8bLtvfH7R6T9k3Pz+O0t/CK/en52n3l7cOrXtacLc4ZvoazNx9ojt+dj+fXMD1eexzApj39kqe1s6RhmLI0m7r0ki+qPnY7G/xAxDRQt1SP99XCs4zaWFPjYOQQ5Cj1tqcX+zJOw4B0ESjjVIyTjMaahK6NzSheV02PlTOn/tjdWNNIXt6GKG93zzsdq90eP3YmcgAX0BWXfklz+4sPVMOUvHZ07PLRObXHbmfzcdo6dJHjVERim+1pnIbn5XMHM6fe8VIKTHF8QZyqgUnnj/eVwZwcy2MNxgW4kFJ4UoBqYUoCxqkL08mjyy/ZXgvPMmpjTS2O0XC7H6f+7bP+vuE4STfjybfYytnOdnGauR2XZl7j82fiVBxL2+1Y6flECrjA0m29G69+bjVMSTqWzqk9djub+UDEimFKauFZRm2sqcUxGm4vnDm1t+rmxal/K26jM6dBnLLqOAAblj70kD6lNwxT2hfoAxE7C1NSC88yamNN7TRO3c/lxb7dnhunwfYq7zm15y5+z2mZOLnFB1wszy4+Sp7c8IIr2321c5e13jhdf7B5bGv1MCUPvOcD1fgskv7D3dpYUzuP0/A2XfXTepNxRlIcxueeu/um5nQ5cyrGStGZmeWMAzV9rvy4xXFqx5k8bngbEmD32uAHIvaYeTMWANZOnJbSzXx6MxgANkac5ujeYyr4sAHABSNOAIQjTgCEI04AhCNOAIQjTgCEI04AhCNOAIQjTgCEI04AhLPeOF13f/PIo4d29MWvX/vj1zavfPyGnhfecaB55pX/pHo+AHvXmmdOlzW3Pni0Obm1eqCGYVrGP/uBa6pjAbC7beC2XheoJx4/uFKgavFZRm0sAHa3Db3n1C06uEqgauEZev/HP9Dc+h+/s7evNlbpvhNPNufOfapz5vB035ljzfGn0v5T43WQ7hlvd86euKc3DgAXzgY/EDEN1C3V431lcEopSPnn3/2Lj7ZxeuSPPzSJVG2siSOnmnNPHZtZg6kL1pPN8bflfV2YpkE63BwXJ4CLZvNx2jq0ozjlCCV5+9f/9Dfan1Ow0s9pX22sibcda85OZkZT3cypm0VNzqtEDICLY6O39U4eXX7J9jJMb/rNN7ezpJ/4vUOTfff+zn2TUCXpWArUV119ZXW8iTR7am/VTSM1E6d0TrkNwEW1mQ9ErBimJEcnSdEpb+clKUZlrJJ0ztZ//pXqeDOKW3zVOJk5AYSx5jjtLExJGZ00c0qBKmOUZk1p9pS3089pdvXy666tjjejuMU3E6cvPtyc7n0IwntOABfTeuN0/cHmsa3Vw5S8/PA3T8KTDAOVPwyRfs639G7/4B3VsSYmt/SS6QcgZuOUdIHK558+Uh4D4ELa4Acizl96Pyndtsv/5n2Htw4vP2MCYNcJHacshSgFqXYMgL1nV8QJgP1FnAAIR5wACEecAAhHnAAIR5wACEecAAhHnAAIR5wACEecAAhnvXG67v7mkUcP7eiLXz/7Zx9oPuPEwz2f+6ZXN0+76sur5wOwd6155nRZc+uDR5uTW6sHahimZXzO/W+pjlV66I47m7M3X149tpzLm+N339mcvrZ2DIAvf/olzQ1XP7d5/TUvbO548YHm5gNXNc971qXVc5e1gdt6XaCeePzgSoGqxWcZtbFK4gSwOc8fReh1L3lhc9e1L+5J+84nUBt6z6lbdHCVQNXCk/2b5q+q0rHaWFmKyrn7s5umy7TffPt0/x0Hpo+56mXN2d75B5rTk+2Ru1/WrZY7c9748QD7yNMveVo7SxqGKUuzqUsv+aLqY7ezwQ9ETAN1S/V43zBIQzlGw59rY5VmZk7X3jSNTO94CtHtzfGrpo/tDGdO884D2F+uuPRLmttffKAapuS1o2OXj86pPXY7m4/T1qFAcarcokuxamdP827fDfe7zQeQpPCkANXClASMUxemk0eXX7I9x2aeFKRS3l8bq1SL0+Q2XTaZSU1v4y2OUe08gP0l3da78ernVsOUpGPpnNpjt7OZD0SsGKakDFFNjtLX/tGJ84zTMrfkylt3i2ZKbvEB+1v60EP6lN4wTGlfoA9E7CxMSRmimhynLO+vjVUavufUfhiieM+prgzSojgtOgawPzy7+Ch5csMLrmz31c5d1nrjdP3B5rGt1cOUfNa/fW8vRkMpSHnWlOOU/sPd2lg9k0/WTT9Vl4JV3tbr4jK9VZeUQWvfl0r726gtOA+AtdjgByLW62f/28cnYUo/184BYG/YNXF66Y3f0kbpRz7yq+3PtXMA2Bt2TZwA2D/ECYBwxAmAcMQJgHDECYBwxAmAcMQJgHDECYBwxAmAcMLF6W9PPm/bfbVzANg7xAmAcMQJgHBCxyn9PDQ8B4C9Z1fMnIZ2HKe3HWvOnvtUc651arK+030nnmzOnTncPHQmH3uyOf627ljad/bEPcU4h5vTxWMBWL9wcVrGzuKUojKNziVHTjXnnjrWrojbxmkUpdNHumPt9vhYed7kcaOQTccFYN12RZyGMdpJnPLsaLpvOgOaOdbOsPLsqD9TSjOpHDEANiNMnFJwhspj5bk7kWdHfd1MalG40vYkSCla5SwKgI3YFe85rStO/feO+scWxSnfyls0BgDrs6vilP4dGp7bU96ea38u3nMqbBun8fbpM/XHA7Beu3LmtG2Ust57RyNpBlTe1hsHafs4dbf2eh+MAGBj9nacANiVwsUJAMQJgHDECYBwxAmAcMQJgHDECYBwxAmAcMQJgHDECYBwwsXplttub+54y/fPSPtr5wOw94SK0ze+8lubn/qlx3pReuA9H2jueuCd7X6BAtgfQsap3Jcj9ZXP+QqBWoaVeoE9YNfEKf0sUEsQJ2AP2FVxSnKgXnTNS3rnMSZOwB6wK+KU9g2lc8vzltKu75TXc5qu15TXc2rXbGqPTRcVTPv6q9/OrvVUWjRWq/ca+mN3z3W4Of5UPj7/eabS6ynOH8SpfT35eN4/XOdqfJ5VfoEowscpzZDS/tLO4pQu4kUo0kV8vHhgvoCfPtIda7fzwoLFeZPHLZiZLBxrHJJ87JIvvqcNUd7ugtYP46LnGj5+Eqr8mMFrn4Z2+Li0bZVfII7wcarZSZzaSPQu9NMZ0Myx3sxiel46li7w/ZiMjR+/aKzZ1zBSxG4aj+JYjktvxjUOyTCc+THteMMAlce61zJ5rjT2cByAi2h/xWlyce9f5GejMSdIS1zEF43VC0JWjDkTp+2er4jN7L4uTjO/cx5v8Ly9iAFcZPsqTjNhKI4tilO+4C8aI9suTvNjssM4DY5Pn2O7W3X5+OB3BQhgb8cpXdzzhbf9uX6x3jZO4+3TZxZd7DsLx2pfw/C9nv5twpXi1I5djtdt5+dvX8uCx6fjZ8+cGilfL8DFt3/ilKSZRr69NbyIL4xTF45FF/ps27HGgcqvobydtnqcRnrjjZ6nmIkl7eue83z5sb19AAGEilP6ZF4KT/5vm+ZJ5/jvnAD2rlBxSuZ98WvJN0QA7G3h4gQA4gRAOOIEQDjiBEA44gRAOOIEQDjiBEA44gRAOKHj9JxXvqE5cOcHW8+/7Uer5wCw94SO00vf+4nWi97x4VbtHAD2nlBxesZzXtDOkK645pWtr3v40+3sKe1LkUo/53PSv7UxljX7Ba1rMPyi2YHtviV8qP3S1qVe4/DbyQF2t1BxSrOjFKQsz5ZSiNKtvdqxnboYcQJgOWHiVM6U8swpz5Ly+01pXzqepHPT9nCcZYkTQFxh4pRClN9jyrfsUoDyviTtyxFL28vEqY3QZD2jaThm4jRcF6l33rHpkuftbbliCfTyNl2OU7luVPEcM8/ZW19qNmrl+k75sdP1mcqFD9Ntve0XQgTYLcK955RnT3l2lI+l23hpBjXcv9goIqOw5HiU7+H0QzG4uBfLn7fnTY7lKPW3JwsE5sBNxu0f7z1nG6Yygse2j9No7Py+Urs9CaM4AXtL6Djl2VKSfq5FayXFKrFlKHrRaE1Xrx0eW7hdu603DN343BSe7T7AUJs5TY73nkucgL0l5G29/H5TilDel35O+8rz0s+1sXp6t87qM6f25/KcVnexH0Zh4XYtTmnfTJzSjGr7mCyMUxFQcQL2mnAfiMhhSjOk9O/wAxFJnj2ln4fj9BSzlsn2+AJfXuzTz5NbcwPDKCzcnjdzmnnO7nbfec2cxAnYw0Ld1ht+lDx9fDzPloYfJU/btTFKwwt6utjPhmJ0rI1K/eI+HGPhdjvONChdNAbvE5XPX4Qsv+dUBkmcgP0q3HtOaZaU/s0zqfJDEHlWlc+pjdGXP8DQOX2mPnNqLXH7b9vt8czpeNo3HqeckVUfm59vPMMTJ4BgcRpKM6kkvb90vv/RLQC7R+g4pRlSun2XpNlT7RwA9p7QcQJgfxInAMIRJwDCEScAwhEnAMIRJwDCEScAwhEnAMIRJwDCEScAwgkfp8+/9juaz3nNj1WP7UixhMVOlV/IyoXmS25hPwgZp6c9+8rWP37htW2YPvf6N1fP2xFx2uXECfaDkHH6rB/8leaz33S4+Yx3frSNU/o5H0uhStEqz1+JOO1y4gT7Qag45Vt4ebaUopT+zYHKx1O80v40u6qN05cuZuM1k9L6R8M4jRcIrK2/lGy35lJeB2qyqm1vvHIxwbQe07Hx+lLT/TW150z70/NO9vfGGF+wT3SvJWlfz/i1TbbLc48Ur7NcLThZ9DeZ8/vN3d873t8/WaNqfGy6DlYXn+nfoYyROMF+ECpOOUhJDlKOVY5T+jfNqJLtZ1DD5dDHoZrEqdueHu+f314cyzicGMSpvaguuHCmOIwf311ot7+oznvO4f5y7JnfK0ept53DMD63fI4UvaX+JoPfb2L+7z09Z/i/RdoeP2YcthzBHKXedu933f7vCOxuYeKUApSjs5107lKzptpFMu0bX4jbi97kojw8Xlw8y+MjXZyODS7itfHShbSLQv3YKApj3TjznrN2QS7PHR5ftF0Zq5jVbP836f/OyaLfe3jeZBaWnjP/b1M8/+TY3O3K6wf2nDBxSrOiWoiG0i292uOrihDV9vUultnkolm/wCaT22uDsduLdBGcTnchrV70Z8x7zvr+9DrqM5pF28NjeV83/uK/ST63+91ypBb93vPG6T3PwhgNt2uvH9hrwsQp3aJL4akFqbTShyFSiAYzpzIS1WBM4jX/ItjNnA63s4jyQl69sBfHlotT7Tlr+9c8cyqiMf9vUuwrxln0ew89dCY9ZjBDFCdgINx7TrUgZat/Si9dyMrbUN325ELbXvTK4/3bVu0MqYjbzHtO4/H6M4D6hXO5OC1+zl5oe+EdXrAXbQ/+BuPfuf87zP+bTBX7F/zeM/8HYbR99kxS/C168dlue/i7AXtRqDglKUD5AxD5AxHpll/t3KWML7bdrabRBW44C+gdn70It1HIx8ePm8apeHweM42fzy/2LxunpPacM/vLC/7KcRr9XHyyb+Z1zf2bpMdO9/dmS3N+75k4jcfo/Z178dlue/i7AXtRuDixaRf74p6evwgPQIU47TsXN06rvD8F7F/itO9cpDjlW4W9W3wAdeIEQDjiBEA44gRAOOIEQDjiBEA44gRAOOIEQDjiBEA44gRAOOHjlJdmrx27qIZfTnoe2i+FHX97wq+mn/O3KKzxOQB2k5BxSqvcJvkbytNSGrXzttct69D7tuyR2eUfdmBt4VjwdULiBOxTIeOUFh1My2WkNZzy8hn5WArV8us6pTgNL/wpBqNILbl8xVxrjdOcccQJ2KdCxSnfwsuzpRSl9G8OVD6e4pX2p9lVbZypWpyS4WxlHKxsJlz949MF9nI4xjO04ktNy7WXpt/CPX7e8VpKZ//4D0Zj9M/rrfs0E6fydcyZbQHsAaHilIOU5CDlWOU4pX+XXxl3XpzKBQO7sJTLOPQWExwHYXIrcBSM44M4tSEqgtZfWLAbv3v8OC69+KV90wDNj1M5zvAYwN4SJk4pQDk620nnbj9rSubHabKu0MxKrSPpwp/3DVfOLc8ZxeF4+QGG1nh2VDzn5Lkqx5aO08zrnP+7Aex2YeKUZkW1EA2lW3q1x9fNv4Cn2U47C6nGZxqMaVjK4yNtOGq319Jj8623Qvsc5xmnyriTmRTAHhImTukWXQpPLUil5T8MkcyJ08IZyfj4eF8vFsNz0hhtNKZxGcam7zzjVHsdAHtQuPecakHKVgtTUolTe8EvZxwpDgvecxqeP9oevufUBqUIzPA9qKnziNP4dZopAftBqDglKUD5AxD5AxHpll/t3O2lOA1vhU1DMNVd+PM5M7fxxoHqjo/j0gvHOEiT8AyfN+8/nzjl7WLc4YwPYI8IFycAECcAwhEnAMIRJwDCEScAwhEnAMIRJwDCEScAwhEnAMIRJwDCCRWn2257TfPWt761541vfGPz7MufWT0fgL0pVJyGYUpe8Y3fIFAA+0z4OKX9uz5Q7Re2Dr/wdTeofVEtwObtijgl+3sG1X3L+bzlMnpLfKyVOAEXx66JU5IDVe7bH8QJ2F/Cxyl73gOPNV/zw0eaz3zXx1tfcO2t1TH6xhfXI8U6SJM1kCoX/Mn6SYsel9dcOjZesymvt5QeMz43KRcbXLguU7G/1R/n9JHBuL01nIbrRk3H6taXmt0/+ZucmC773v4NimXgp3+T8bniBFxg4eJU25/kKGWfd8Nd1fP6xhf24oJerlLbW9hvvN3NQJZ4XO+i3UWinL30ZjO9OA0u+L1l4rvnncRh9Lh21d0VZ07t6ysjVnmOye+do9TbnvNaAS6Q8DOnNFsaynH625PPaz75oSurY3UqF9cyFOnnyUU7BSCfu/hxw6j1L/7F+Xnfose2zzV+PWmc3rFslTjVgrLod1u0XRsLYPPCz5yGM6YsxykZPmaqdnFN+/LMoLho90K1+HHVOM1EpXieYZzSTKWne650rJwBTa0ap/z79c/pHj/83RZtD48BXBjhZ045Ru971x3NsQ/c2PqJ731ma0dx6kVoZBSWdGHvh2Hx46pxWmHmVA9QZdwJMydgf9k1M6cUpRyjoeFjptLFtXg/ZXyR78dhdM5Tp1rT2cbix81GpDu/HLcXjCJO3c9zLvjtsSJCo+3qe07leCP9OHXbi99zEicgtl0zc8pxKmdOyZtf9fTqWJ3xxbX4ZFptZtJezGdiM/9x9RlOesz43JFeAAcxaWNRnNsbaxyo7lgRhvyYFJnheJPH9IM1Gb83qxsGZ9H28BjAhREqTjfddGM1UElt5lQbo2+5i2u6kPdvma35opzi0QsEAIuEitMiaYaUo5RmTA8/cEX1vL4lIlMNx3rjNP+9JABqdk2cdmZRZLr3cfr/vVK2nji1URrcbgNge3s8TgDsRuIEQDjiBEA44gRAOOIEQDjiBEA44gRAOKHidNttr5n5Zoj9uzQ7wP4VKk7DMCV5aXaBAtg/wscp7d8NgZr98lgAdmpXxCkxgzpPtTWntpGC2/t29Xl2MDbAIrsmTkkOVLmPJYkTsIuEj1P2vAcea77mh49M1nf6gmtvrY7RN/4C1/G6TPlCO/1C1tlbceU6SKePpMfnL20tf56em5faKC/k3beQHxt/sWz5+Dx28aWy47WZjk9eU3ds+hqHX0C7eJyH8rpPI9Xfd6R7zXPGaeUvxc1G47bjF+e1z3Oq+Wh1bIDzEy5Otf1JjlL2eTfcVT2vb3wBLgM0+H/5s1GZntuFaodx6l3wF6xk2/48G5Le9uT1bj/O5PXXYjJvnDnK3ymZ/n0GjzdzAtYs/MwpzZaGcpzS2k6f/NCV1bE6KSgLIpGkC2t7wR2em5RBWjFOC4LYvY7xc5WBSRZtrzLONgEZhqdm9pzx86WZ6MLfD+D8hJ85DWdMWY7T4hVx63Eqb0O12gvrbHzWGqfhc460j101TsuOM1K+vnrYusfPi1Q1YO1r6D+POAHrFn7mlGP0vnfd0S7VnqSVcJOdxancLg3PHeld8M8zTuV2adU4LTvOyOI4ZYMZVmE2Tt3f7/SZ7WaGAOdn18ycUpRyjIaGj5maDU7/PZy+dDEuL7rt9uSCP7iIpwtynrWMz50bp/Z11AOwUpxWGWdkuTgVr30wRvk7JdPfa/B3FSdgzXbNzCnHqZw5JW9+1dOrY3Vm45R00ZmaXuynt7q6/enxxQV/HKTW6CJdXvzLC/lsnEbaC/907MnFfGGM5m0vMc5I+frK3+30kf7vOXmtc59rtK/93Ytjve1y7PFxgPMQKk433XRjNVBJbeZUG2O9BnEC4IIIFadF0gwpRynNmB5+4IrqeeslTgAXw66J08UhTgAXgzgBEI44ARCOOAEQjjgBEI44ARCOOAEQjjgBEI44ARCOOAEQjjgBEI44ARCOOAEQjjgBEI44ARCOOAEQjjgBEI44ARCOOAEQjjgBEI44ARCOOAEQjjgBEI44ARCOOAEQjjgBEI44ARCOOAEQjjgBEI44ARCOOAEQjjgBEI44ARCOOAEQjjgBEI44ARCOOAEQjjgBEI44ARCOOAEQjjgBEI44ARCOOAEQjjgBEI44ARCOOAEQjjgBEI44ARCOOAEQjjgBEI44ARCOOAEQjjgBEI44ARCOOAEQjjgBEI44ARCOOAEQjjgBEI44ARCOOAEQjjgBEI44ARCOOAEQjjgBEI44ARCOOAEQjjgBEI44ARCOOAEQjjgBEI44ARCOOAEQjjgBEI44ARCOOAEQjjgBEI44ARCOOAEQjjgBEI44ARCOOAEQjjgBEI44ARCOOAEQjjgBEI44ARCOOAEQjjgBEI44ARCOOAEQjjgBEI44ARCOOAEQjjgBEI44ARCOOAEQjjgBEI44ARCOOAEQjjgBEI44ARCOOAEQjjgBEI44ARCOOAEQjjgBEI44ARCOOAEQjjgBEI44ARCOOAEQjjgBEI44ARCOOAEQjjgBEI44ARCOOAEQjjgBEI44ARCOOAEQjjgBEI44ARCOOAEQjjgBEI44ARCOOAEQjjgBEI44ARCOOAEQjjgBEI44ARCOOAEQjjgBEI44ARCOOAEQjjgBEI44ARCOOAEQjjgBEI44ARCOOAEQjjgBEI44ARCOOAEQjjgBEI44ARCOOAEQjjgBEI44ARCOOAEQjjgBEI44ARCOOAEQjjgBEI44ARCOOAEQjjgBEI44ARCOOAEQjjgBEI44ARCOOAEQjjgBEI44ARCOOAEQjjgBEI44ARCOOAEQjjgBEI44ARCOOAEQjjgBEI44ARCOOAEQjjgBEI44ARCOOAEQjjgBEI44ARCOOAEQjjgBEI44ARCOOAEQjjgBEI44ARCOOAEQjjgBEI44ARCOOAEQjjgBEI44ARCOOAEQjjgBEI44ARCOOAEQjjgBEI44ARCOOAEQjjgBEI44ARCOOAEQjjgBEI44ARCOOAEQjjgBEI44ARCOOAEQjjgBEI44ARCOOAEQjjgBEI44ARCOOAEQjjgBEI44ARCOOAEQjjgBEI44ARCOOAEQjjgBEI44ARCOOAEQjjgBEI44ARCOOAEQjjgBEI44ARCOOAEQjjgBEI44ARCOOAEQjjgBEI44ARCOOAEQjjgBEI44ARCOOAEQjjgBEI44ARCOOAEQjjgBEI44ARCOOAEQjjgBEI44ARCOOAEQjjgBEI44ARCOOAEQjjgBEI44ARCOOAEQjjgBEI44ARCOOAEQjjgBEI44ARCOOAEQjjgBEI44ARCOOAEQjjgBEI44ARCOOAEQjjgBEI44ARCOOAEQjjgBEI44ARCOOAEQjjgBEI44ARCOOAEQjjgBEI44ARCOOAEQjjgBEI44ARCOOAEQjjgBEI44ARCOOAEQjjgBEI44ARCOOAEQjjgBEI44ARCOOAEQjjgBEI44ARCOOAEQjjgBEI44ARCOOAEQjjgBEI44ARCOOAEQjjgBEI44ARCOOAEQjjgBEI44ARCOOAEQjjgBEI44ARCOOAEQjjgBEI44ARCOOAEQjjgBEI44ARCOOAEQjjgBEI44ARCOOAEQjjgBEI44ARCOOAEQjjgBEI44ARCOOAEQjjgBEI44ARCOOAEQjjgBEI44ARCOOAEQjjgBEI44ARCOOAEQjjgBEI44ARCOOAEQjjgBEI44ARCOOAEQjjgBEI44ARCOOAEQjjgBEI44ARCOOAEQjjgBEI44ARCOOAEQjjgBEI44ARCOOAEQjjgBEI44ARCOOAEQjjgBEI44ARCOOAEQjjgBEI44ARCOOAEQjjgBEI44ARCOOAEQjjgBEI44ARCOOAEQjjgBEI44ARCOOAEQjjgBEI44ARCOOAEQjjgBEI44ARCOOAEQjjgBEI44ARCOOAEQjjgBEI44ARCOOAEQjjgBEI44ARCOOAEQjjgBEI44ARCOOAEQjjgBEI44ARCOOAEQjjgBEI44ARCOOAEQjjgBEI44ARCOOAEQjjgBEI44ARCOOAEQjjgBEI44ARCOOAEQjjgBEI44ARCOOAEQjjgBEI44ARCOOAEQjjgBEI44ARCOOAEQjjgBEI44ARCOOAEQjjgBEI44ARCOOAEQjjgBEI44ARCOOAEQjjgBEI44ARCOOAEQjjgBEI44ARCOOAEQjjgBEI44ARCOOAEQjjgBEI44ARCOOAEQjjgBEI44ARCOOAEQjjgBEI44ARCOOAEQjjgBEI44ARCOOAEQjjgBEI44ARCOOAEQjjgBEI44ARCOOAEQjjgBEI44ARCOOAEQjjgBEI44ARCOOAEQjjgBEI44ARCOOAEQjjgBEI44ARCOOAEQjjgBEI44ARCOOAEQjjgBEI44ARCOOAEQjjgBEI44ARCOOAEQjjgBEI44ARCOOAEQjjgBEI44ARCOOAEQjjgBEI44ARCOOAEQjjgBEI44ARCOOAEQjjgBEI44ARCOOAEQjjgBEI44ARCOOAEQjjgBEI44ARCOOAEQjjgBEI44ARCOOAEQjjgBEI44ARCOOAEQjjgBEI44ARCOOAEQjjgBEI44ARCOOAEQjjgBEI44ARCOOAEQjjgBEI44ARCOOAEQjjgBEI44ARCOOAEQjjgBEI44ARCOOAEQjjgBEI44ARCOOAEQjjgBEI44ARCOOAEQjjgBEI44ARCOOAEQjjgBEI44ARCOOAEQjjgBEI44ARDMFzb/H96rUHLxGFzgAAAAAElFTkSuQmCC;clipPath=inset(0% 0% 59% 0%);" parent="1" vertex="1">
                    <mxGeometry x="-810" y="190" width="387.64" height="320" as="geometry"/>
                </mxCell>
                <mxCell id="4" value="&lt;h1&gt;Main.py&lt;/h1&gt;" style="rounded=1;whiteSpace=wrap;html=1;strokeWidth=2;fillWeight=4;hachureGap=8;hachureAngle=45;fillColor=#1ba1e2;sketch=1;" vertex="1" parent="1">
                    <mxGeometry x="-40" y="670" width="120" height="60" as="geometry"/>
                </mxCell>
                <mxCell id="5" value="&lt;h1&gt;/auth/&lt;/h1&gt;" style="rounded=1;whiteSpace=wrap;html=1;strokeWidth=2;fillWeight=4;hachureGap=8;hachureAngle=45;fillColor=#1ba1e2;sketch=1;fontFamily=Tahoma;" vertex="1" parent="1">
                    <mxGeometry x="-40" y="410" width="120" height="60" as="geometry"/>
                </mxCell>
                <mxCell id="6" value="&lt;h1&gt;schemas&lt;/h1&gt;" style="ellipse;whiteSpace=wrap;html=1;strokeWidth=2;fillWeight=2;hachureGap=8;fillColor=#990000;fillStyle=dots;sketch=1;fontFamily=Tahoma;" vertex="1" parent="1">
                    <mxGeometry x="-310" y="310" width="120" height="60" as="geometry"/>
                </mxCell>
                <mxCell id="7" value="&lt;h1&gt;manager&lt;/h1&gt;" style="ellipse;whiteSpace=wrap;html=1;strokeWidth=2;fillWeight=2;hachureGap=8;fillColor=#990000;fillStyle=dots;sketch=1;fontFamily=Tahoma;" vertex="1" parent="1">
                    <mxGeometry x="-160" y="310" width="120" height="60" as="geometry"/>
                </mxCell>
                <mxCell id="8" value="&lt;h1&gt;utils&lt;/h1&gt;" style="ellipse;whiteSpace=wrap;html=1;strokeWidth=2;fillWeight=2;hachureGap=8;fillColor=#990000;fillStyle=dots;sketch=1;fontFamily=Tahoma;" vertex="1" parent="1">
                    <mxGeometry x="-6" y="310" width="120" height="60" as="geometry"/>
                </mxCell>
                <mxCell id="9" value="&lt;h2&gt;base_config&lt;/h2&gt;" style="ellipse;whiteSpace=wrap;html=1;strokeWidth=2;fillWeight=2;hachureGap=8;fillColor=#990000;fillStyle=dots;sketch=1;fontFamily=Tahoma;" vertex="1" parent="1">
                    <mxGeometry x="150" y="310" width="120" height="60" as="geometry"/>
                </mxCell>
                <mxCell id="10" value="&lt;h1&gt;models&lt;/h1&gt;" style="ellipse;whiteSpace=wrap;html=1;strokeWidth=2;fillWeight=2;hachureGap=8;fillColor=#990000;fillStyle=dots;sketch=1;fontFamily=Tahoma;" vertex="1" parent="1">
                    <mxGeometry x="310" y="310" width="120" height="60" as="geometry"/>
                </mxCell>
                <mxCell id="11" value="" style="endArrow=classic;html=1;fontFamily=Tahoma;strokeWidth=3;" edge="1" parent="1">
                    <mxGeometry width="50" height="50" relative="1" as="geometry">
                        <mxPoint x="360" y="380" as="sourcePoint"/>
                        <mxPoint x="130" y="460" as="targetPoint"/>
                        <Array as="points">
                            <mxPoint x="350" y="410"/>
                            <mxPoint x="240" y="440"/>
                        </Array>
                    </mxGeometry>
                </mxCell>
                <mxCell id="12" value="" style="endArrow=classic;html=1;fontFamily=Tahoma;strokeWidth=3;exitX=0.258;exitY=1;exitDx=0;exitDy=0;exitPerimeter=0;" edge="1" parent="1" source="9">
                    <mxGeometry width="50" height="50" relative="1" as="geometry">
                        <mxPoint x="370" y="390" as="sourcePoint"/>
                        <mxPoint x="100" y="430" as="targetPoint"/>
                        <Array as="points">
                            <mxPoint x="170" y="380"/>
                            <mxPoint x="150" y="400"/>
                        </Array>
                    </mxGeometry>
                </mxCell>
                <mxCell id="13" value="" style="endArrow=classic;html=1;strokeWidth=3;fontFamily=Tahoma;" edge="1" parent="1">
                    <mxGeometry width="50" height="50" relative="1" as="geometry">
                        <mxPoint x="-120" y="380" as="sourcePoint"/>
                        <mxPoint x="-50" y="430" as="targetPoint"/>
                        <Array as="points">
                            <mxPoint x="-90" y="420"/>
                        </Array>
                    </mxGeometry>
                </mxCell>
                <mxCell id="14" value="" style="endArrow=classic;html=1;strokeWidth=3;fontFamily=Tahoma;" edge="1" parent="1">
                    <mxGeometry width="50" height="50" relative="1" as="geometry">
                        <mxPoint x="-260" y="380" as="sourcePoint"/>
                        <mxPoint x="-60" y="450" as="targetPoint"/>
                        <Array as="points">
                            <mxPoint x="-240" y="400"/>
                        </Array>
                    </mxGeometry>
                </mxCell>
                <mxCell id="15" value="" style="endArrow=classic;html=1;strokeWidth=3;fontFamily=Tahoma;exitX=0.558;exitY=1.033;exitDx=0;exitDy=0;exitPerimeter=0;" edge="1" parent="1" source="8">
                    <mxGeometry width="50" height="50" relative="1" as="geometry">
                        <mxPoint x="90" y="450" as="sourcePoint"/>
                        <mxPoint x="30" y="400" as="targetPoint"/>
                        <Array as="points">
                            <mxPoint x="50" y="380"/>
                        </Array>
                    </mxGeometry>
                </mxCell>
                <mxCell id="19" value="&lt;h1&gt;app.include_router&lt;/h1&gt;" style="rhombus;whiteSpace=wrap;html=1;strokeWidth=2;fillWeight=-1;hachureGap=8;fillStyle=cross-hatch;fillColor=#006600;sketch=1;fontFamily=Tahoma;fontSize=11;" vertex="1" parent="1">
                    <mxGeometry x="-150" y="510" width="340" height="120" as="geometry"/>
                </mxCell>
                <mxCell id="20" value="" style="endArrow=classic;html=1;strokeWidth=3;fontFamily=Tahoma;fontSize=11;exitX=0.433;exitY=1.05;exitDx=0;exitDy=0;exitPerimeter=0;" edge="1" parent="1" source="5" target="19">
                    <mxGeometry width="50" height="50" relative="1" as="geometry">
                        <mxPoint x="10" y="480" as="sourcePoint"/>
                        <mxPoint x="140" y="560" as="targetPoint"/>
                        <Array as="points">
                            <mxPoint x="10" y="490"/>
                        </Array>
                    </mxGeometry>
                </mxCell>
                <mxCell id="21" value="" style="endArrow=classic;html=1;strokeWidth=3;fontFamily=Tahoma;fontSize=11;exitX=0.6;exitY=0.942;exitDx=0;exitDy=0;exitPerimeter=0;entryX=0.75;entryY=0;entryDx=0;entryDy=0;" edge="1" parent="1" source="19" target="4">
                    <mxGeometry width="50" height="50" relative="1" as="geometry">
                        <mxPoint x="90" y="610" as="sourcePoint"/>
                        <mxPoint x="140" y="560" as="targetPoint"/>
                        <Array as="points">
                            <mxPoint x="54" y="650"/>
                        </Array>
                    </mxGeometry>
                </mxCell>
                <mxCell id="22" value="&lt;h5&gt;auth_backend&lt;/h5&gt;" style="text;strokeColor=none;fillColor=none;html=1;fontSize=24;fontStyle=1;verticalAlign=middle;align=center;fontFamily=Tahoma;" vertex="1" parent="1">
                    <mxGeometry x="160" y="240" width="100" height="40" as="geometry"/>
                </mxCell>
                <mxCell id="23" value="&lt;h6&gt;get_jwt_strategy&lt;/h6&gt;" style="text;strokeColor=none;fillColor=none;html=1;fontSize=24;fontStyle=1;verticalAlign=middle;align=center;fontFamily=Tahoma;" vertex="1" parent="1">
                    <mxGeometry x="160" y="270" width="100" height="40" as="geometry"/>
                </mxCell>
                <mxCell id="24" value="&lt;h6&gt;get_user_db&lt;/h6&gt;" style="text;strokeColor=none;fillColor=none;html=1;fontSize=24;fontStyle=1;verticalAlign=middle;align=center;fontFamily=Tahoma;" vertex="1" parent="1">
                    <mxGeometry x="4" y="270" width="100" height="40" as="geometry"/>
                </mxCell>
                <mxCell id="25" value="create user" style="text;strokeColor=none;fillColor=none;html=1;fontSize=24;fontStyle=1;verticalAlign=middle;align=center;fontFamily=Tahoma;" vertex="1" parent="1">
                    <mxGeometry x="-150" y="270" width="100" height="40" as="geometry"/>
                </mxCell>
                <mxCell id="26" value="pydantic" style="text;strokeColor=none;fillColor=none;html=1;fontSize=24;fontStyle=1;verticalAlign=middle;align=center;fontFamily=Tahoma;" vertex="1" parent="1">
                    <mxGeometry x="-300" y="270" width="100" height="40" as="geometry"/>
                </mxCell>
                <mxCell id="27" value="metadata" style="text;strokeColor=none;fillColor=none;html=1;fontSize=24;fontStyle=1;verticalAlign=middle;align=center;fontFamily=Tahoma;" vertex="1" parent="1">
                    <mxGeometry x="320" y="270" width="100" height="40" as="geometry"/>
                </mxCell>
            </root>
        </mxGraphModel>
    </diagram>
</mxfile>